<svg width="35" height="35" viewBox="0 0 35 35" fill="none" xmlns="http://www.w3.org/2000/svg">
<path d="M26.1835 8.18418C25.2405 7.36725 24.0232 6.93775 22.7764 6.98212C21.5296 7.0265 20.3459 7.54145 19.4634 8.42335L9.5672 18.3167C9.36693 18.5316 9.12543 18.704 8.8571 18.8235C8.58877 18.9431 8.2991 19.0074 8.00539 19.0126C7.71167 19.0178 7.41992 18.9637 7.14754 18.8537C6.87515 18.7437 6.62772 18.5799 6.42 18.3722C6.21228 18.1645 6.04852 17.9171 5.9385 17.6447C5.82848 17.3723 5.77446 17.0805 5.77964 16.7868C5.78482 16.4931 5.84911 16.2034 5.96867 15.9351C6.08823 15.6668 6.26061 15.4253 6.47553 15.225L16.3689 5.33168C17.2381 4.45077 18.2742 3.752 19.4167 3.27622C20.5591 2.80045 21.785 2.55722 23.0225 2.56077C24.2601 2.56431 25.4845 2.81456 26.6242 3.29687C27.7639 3.77918 28.796 4.48388 29.6602 5.36975C30.5244 6.25563 31.2032 7.30491 31.6571 8.45623C32.111 9.60756 32.3308 10.8378 32.3036 12.0751C32.2764 13.3123 32.0029 14.5318 31.4989 15.6621C30.9949 16.7924 30.2707 17.8108 29.3685 18.6579L15.593 31.7713C14.5282 32.8101 13.0944 33.3835 11.6069 33.3652C10.1193 33.3468 8.70003 32.7383 7.66115 31.6736C6.62228 30.6088 6.04894 29.1749 6.06726 27.6874C6.08559 26.1999 6.69407 24.7806 7.75886 23.7417L20.1343 11.3633C20.3362 11.1545 20.5776 10.988 20.8446 10.8735C21.1115 10.7589 21.3986 10.6987 21.689 10.6964C21.9795 10.694 22.2675 10.7495 22.5363 10.8596C22.8051 10.9697 23.0492 11.1322 23.2545 11.3377C23.4598 11.5432 23.6221 11.7875 23.732 12.0564C23.8419 12.3253 23.8971 12.6134 23.8944 12.9038C23.8917 13.1943 23.8313 13.4813 23.7165 13.7481C23.6017 14.0149 23.435 14.2562 23.2259 14.4579L10.8593 26.8363C10.6429 27.0681 10.5242 27.3744 10.5277 27.6916C10.5312 28.0087 10.6566 28.3123 10.8781 28.5393C11.0995 28.7664 11.3998 28.8994 11.7168 28.9109C12.0337 28.9223 12.3429 28.8113 12.5801 28.6008L26.3526 15.4875C26.8509 15.0133 27.2445 14.4401 27.5083 13.8048C27.772 13.1695 27.9 12.4861 27.8841 11.7984C27.8682 11.1107 27.7087 10.434 27.4158 9.81155C27.1229 9.18913 26.7032 8.63482 26.1835 8.18418Z" fill="url(#paint0_linear_116_5668)"/>
<defs>
<linearGradient id="paint0_linear_116_5668" x1="19.0426" y1="2.56073" x2="19.0426" y2="33.3656" gradientUnits="userSpaceOnUse">
<stop stop-color="#E3AE9B"/>
<stop offset="1" stop-color="#FCA466"/>
</linearGradient>
</defs>
</svg>
