<svg width="21" height="23" viewBox="0 0 21 23" fill="none" xmlns="http://www.w3.org/2000/svg">
<path d="M14.2458 10.2722C14.3069 10.339 14.3554 10.4183 14.3885 10.5056C14.4216 10.5929 14.4386 10.6865 14.4386 10.7811C14.4386 10.8756 14.4216 10.9692 14.3885 11.0565C14.3554 11.1439 14.3069 11.2232 14.2458 11.2899L10.3083 15.6024C10.2473 15.6694 10.1749 15.7225 10.0952 15.7587C10.0155 15.795 9.92998 15.8136 9.84366 15.8136C9.75734 15.8136 9.67187 15.795 9.59214 15.7587C9.51242 15.7225 9.44 15.6694 9.37904 15.6024L7.41029 13.4462C7.34927 13.3794 7.30087 13.3 7.26785 13.2127C7.23483 13.1254 7.21783 13.0318 7.21783 12.9373C7.21783 12.8428 7.23483 12.7492 7.26785 12.6619C7.30087 12.5746 7.34927 12.4953 7.41029 12.4284C7.53351 12.2935 7.70065 12.2177 7.87491 12.2177C7.9612 12.2177 8.04665 12.2363 8.12637 12.2724C8.20609 12.3086 8.27852 12.3616 8.33954 12.4284L9.84366 14.0773L13.3165 10.2722C13.3775 10.2053 13.4499 10.1522 13.5296 10.1159C13.6094 10.0797 13.6948 10.061 13.7812 10.061C13.8675 10.061 13.953 10.0797 14.0327 10.1159C14.1124 10.1522 14.1848 10.2053 14.2458 10.2722Z" fill="#646464"/>
<path d="M4.59375 0C4.7678 0 4.93472 0.0757252 5.05779 0.210517C5.18086 0.345309 5.25 0.528126 5.25 0.71875V1.4375H15.75V0.71875C15.75 0.528126 15.8191 0.345309 15.9422 0.210517C16.0653 0.0757252 16.2322 0 16.4062 0C16.5803 0 16.7472 0.0757252 16.8703 0.210517C16.9934 0.345309 17.0625 0.528126 17.0625 0.71875V1.4375H18.375C19.0712 1.4375 19.7389 1.7404 20.2312 2.27957C20.7234 2.81874 21 3.55 21 4.3125V20.125C21 20.8875 20.7234 21.6188 20.2312 22.1579C19.7389 22.6971 19.0712 23 18.375 23H2.625C1.92881 23 1.26113 22.6971 0.768845 22.1579C0.276562 21.6188 0 20.8875 0 20.125V4.3125C0 3.55 0.276562 2.81874 0.768845 2.27957C1.26113 1.7404 1.92881 1.4375 2.625 1.4375H3.9375V0.71875C3.9375 0.528126 4.00664 0.345309 4.12971 0.210517C4.25278 0.0757252 4.4197 0 4.59375 0V0ZM1.3125 5.75V20.125C1.3125 20.5062 1.45078 20.8719 1.69692 21.1415C1.94306 21.411 2.2769 21.5625 2.625 21.5625H18.375C18.7231 21.5625 19.0569 21.411 19.3031 21.1415C19.5492 20.8719 19.6875 20.5062 19.6875 20.125V5.75H1.3125Z" fill="#646464"/>
</svg>
