<svg width="36" height="36" viewBox="0 0 36 36" fill="none" xmlns="http://www.w3.org/2000/svg">
<path d="M1.29284 1.29376C1.92575 0.661042 2.78404 0.305603 3.67897 0.305603C4.5739 0.305603 5.43219 0.661042 6.06509 1.29376L17.9991 13.2278L29.9331 1.29376C30.5696 0.678974 31.4222 0.338793 32.3071 0.346482C33.192 0.354172 34.0385 0.709117 34.6642 1.33487C35.29 1.96062 35.6449 2.80711 35.6526 3.69203C35.6603 4.57694 35.3201 5.42948 34.7053 6.06601L22.7713 18L34.7053 29.934C35.3201 30.5705 35.6603 31.4231 35.6526 32.308C35.6449 33.1929 35.29 34.0394 34.6642 34.6651C34.0385 35.2909 33.192 35.6458 32.3071 35.6535C31.4222 35.6612 30.5696 35.321 29.9331 34.7063L17.9991 22.7723L6.06509 34.7063C5.42856 35.321 4.57603 35.6612 3.69111 35.6535C2.8062 35.6458 1.95971 35.2909 1.33395 34.6651C0.708202 34.0394 0.353256 33.1929 0.345567 32.308C0.337877 31.4231 0.678058 30.5705 1.29284 29.934L13.2268 18L1.29284 6.06601C0.660127 5.4331 0.304688 4.57481 0.304688 3.67988C0.304688 2.78495 0.660127 1.92666 1.29284 1.29376V1.29376Z" fill="#646464"/>
</svg>
