<svg width="38" height="38" viewBox="0 0 38 38" fill="none" xmlns="http://www.w3.org/2000/svg">
<rect width="38" height="38" fill="url(#paint0_linear_116_5634)"/>
<path d="M23.7507 6.33332H9.50065V31.6667H28.5007V11.0833H23.7507V6.33332ZM9.50065 3.16666H25.334L31.6673 9.49999V31.6667C31.6673 32.5065 31.3337 33.312 30.7398 33.9058C30.146 34.4997 29.3405 34.8333 28.5007 34.8333H9.50065C8.6608 34.8333 7.85534 34.4997 7.26148 33.9058C6.66761 33.312 6.33398 32.5065 6.33398 31.6667V6.33332C6.33398 5.49347 6.66761 4.68802 7.26148 4.09415C7.85534 3.50029 8.6608 3.16666 9.50065 3.16666ZM12.6673 17.4167H25.334V20.5833H12.6673V17.4167ZM12.6673 23.75H25.334V26.9167H12.6673V23.75Z" fill="url(#paint1_linear_116_5634)"/>
<defs>
<linearGradient id="paint0_linear_116_5634" x1="19" y1="0" x2="19" y2="38" gradientUnits="userSpaceOnUse">
<stop stop-color="white"/>
<stop offset="1" stop-color="white" stop-opacity="0"/>
</linearGradient>
<linearGradient id="paint1_linear_116_5634" x1="19.0007" y1="3.16666" x2="19.0007" y2="34.8333" gradientUnits="userSpaceOnUse">
<stop stop-color="#E2AE9D"/>
<stop offset="1" stop-color="#FDA262"/>
</linearGradient>
</defs>
</svg>
