<svg width="49" height="48" viewBox="0 0 49 48" fill="none" xmlns="http://www.w3.org/2000/svg">
<path d="M21.4102 17.0687V20.3292H19.0234V24.3143H21.4102V36.1607H26.3164V24.3143H29.6078C29.6078 24.3143 29.9179 22.4035 30.0671 20.3127H26.3354V17.5896C26.3354 17.18 26.8705 16.633 27.4009 16.633H30.0719V12.4821H26.4372C21.2895 12.4821 21.4102 16.472 21.4102 17.0687Z" fill="#463F3A" fill-opacity="0.77"/>
<path d="M10.2937 5.37857C9.0377 5.37857 7.83316 5.87751 6.94504 6.76563C6.05692 7.65374 5.55798 8.85829 5.55798 10.1143V38.5286C5.55798 39.7846 6.05692 40.9891 6.94504 41.8772C7.83316 42.7653 9.0377 43.2643 10.2937 43.2643H38.708C39.964 43.2643 41.1685 42.7653 42.0566 41.8772C42.9448 40.9891 43.4437 39.7846 43.4437 38.5286V10.1143C43.4437 8.85829 42.9448 7.65374 42.0566 6.76563C41.1685 5.87751 39.964 5.37857 38.708 5.37857H10.2937ZM10.2937 0.642853H38.708C41.22 0.642853 43.6291 1.64073 45.4053 3.41697C47.1815 5.19321 48.1794 7.6023 48.1794 10.1143V38.5286C48.1794 41.0405 47.1815 43.4496 45.4053 45.2259C43.6291 47.0021 41.22 48 38.708 48H10.2937C7.78172 48 5.37262 47.0021 3.59638 45.2259C1.82015 43.4496 0.822266 41.0405 0.822266 38.5286V10.1143C0.822266 7.6023 1.82015 5.19321 3.59638 3.41697C5.37262 1.64073 7.78172 0.642853 10.2937 0.642853V0.642853Z" fill="#463F3A" fill-opacity="0.77"/>
</svg>
