<svg width="17" height="17" viewBox="0 0 17 17" fill="none" xmlns="http://www.w3.org/2000/svg">
<path d="M4.25 5.60288V11.3333C4.25 12.4605 4.69777 13.5415 5.4948 14.3385C6.29183 15.1355 7.37283 15.5833 8.5 15.5833C9.62717 15.5833 10.7082 15.1355 11.5052 14.3385C12.3022 13.5415 12.75 12.4605 12.75 11.3333V4.24996C12.75 3.49851 12.4515 2.77784 11.9201 2.24649C11.3888 1.71514 10.6681 1.41663 9.91667 1.41663C9.16522 1.41663 8.44455 1.71514 7.9132 2.24649C7.38184 2.77784 7.08333 3.49851 7.08333 4.24996V10.7539C7.08333 10.9399 7.11998 11.1241 7.19117 11.296C7.26236 11.4679 7.36672 11.6241 7.49827 11.7556C7.62982 11.8872 7.78599 11.9915 7.95787 12.0627C8.12974 12.1339 8.31396 12.1705 8.5 12.1705V12.1705C8.87572 12.1705 9.23606 12.0213 9.50173 11.7556C9.76741 11.4899 9.91667 11.1296 9.91667 10.7539V5.66663" stroke="black" stroke-width="2" stroke-linecap="round" stroke-linejoin="round"/>
</svg>
