<svg width="29" height="29" viewBox="0 0 29 29" fill="none" xmlns="http://www.w3.org/2000/svg">
<g clip-path="url(#clip0_226_2280)">
<path d="M7.5083 17.008H14.5929V29H7.5083V17.008Z" fill="#B6B1B1"/>
<path d="M16.7678 16.3737H24.0722V23.7573H16.7678V16.3737Z" fill="white"/>
<path d="M25.7782 12.8869L15.4107 3.45055C14.91 2.99516 14.0898 2.99516 13.5891 3.45055L3.21937 12.8869C2.71867 13.3445 2.30859 14.2712 2.30859 14.9486V27.7698C2.30859 28.4472 2.86367 29.0023 3.53883 29.0023H8.29891V20.5447C8.29891 20.0281 8.72031 19.6067 9.23461 19.6067H12.9865C13.5008 19.6067 13.9245 20.0281 13.9245 20.5447V29H25.4587C26.1362 29 26.6912 28.4472 26.6912 27.7675V14.9463C26.6912 14.2712 26.2812 13.3423 25.7782 12.8869ZM19.8309 23.0505H18.492C17.8666 23.0505 17.3523 22.5384 17.3523 21.9109V20.7667H19.8309V23.0505ZM19.8309 19.6792H17.3523V18.1454C17.3523 17.5201 17.8666 17.0058 18.492 17.0058H19.8309V19.6792ZM23.3948 21.9109C23.3948 22.5362 22.8827 23.0505 22.2552 23.0505H20.9162V20.7667H23.3948V21.9109ZM23.3948 19.6792H20.9184V17.008H22.2574C22.5595 17.0086 22.849 17.1289 23.0626 17.3425C23.2762 17.5561 23.3964 17.8456 23.397 18.1477V19.6792H23.3948Z" fill="#FFBE8F"/>
<path d="M14.6632 5.95632L26.893 17.2822L27.1785 17.2845L27.3076 13.1497L14.6632 1.44093L1.72194 13.1497L1.64038 17.0148L2.43335 17.0216L14.6632 5.95632Z" fill="#FFA25E"/>
<path d="M9.7104 25.2164C10.1609 25.2164 10.526 24.8512 10.526 24.4008C10.526 23.9503 10.1609 23.5852 9.7104 23.5852C9.25994 23.5852 8.89478 23.9503 8.89478 24.4008C8.89478 24.8512 9.25994 25.2164 9.7104 25.2164Z" fill="white"/>
</g>
<defs>
<clipPath id="clip0_226_2280">
<rect width="29" height="29" fill="white"/>
</clipPath>
</defs>
</svg>
