<svg width="47" height="48" viewBox="0 0 47 48" fill="none" xmlns="http://www.w3.org/2000/svg">
<path fill-rule="evenodd" clip-rule="evenodd" d="M13.7277 0.267071C16.2031 0.150831 16.9924 0.125 23.2983 0.125C29.6041 0.125 30.3934 0.152984 32.8668 0.267071C35.3402 0.381159 37.0285 0.783695 38.5057 1.36705C40.0526 1.96332 41.4561 2.89539 42.6168 4.10085C43.7986 5.28262 44.7103 6.71195 45.2927 8.29196C45.8668 9.79877 46.2593 11.5209 46.3733 14.0394C46.4872 16.5687 46.5126 17.3738 46.5126 23.8036C46.5126 30.2355 46.4851 31.0406 46.3733 33.5656C46.2614 36.0841 45.8668 37.8062 45.2927 39.313C44.7103 40.8932 43.7971 42.3249 42.6168 43.5084C41.4561 44.7139 40.0526 45.6438 38.5057 46.2379C37.0285 46.8235 35.3401 47.2238 32.871 47.3401C30.3934 47.4563 29.6041 47.4821 23.2983 47.4821C16.9924 47.4821 16.2031 47.4542 13.7277 47.3401C11.2585 47.226 9.57018 46.8235 8.09291 46.2379C6.54372 45.6437 5.1401 44.7123 3.97976 43.5084C2.79875 42.326 1.88481 40.8949 1.30168 39.3152C0.729764 37.8084 0.337231 36.0863 0.22327 33.5678C0.109309 31.0385 0.0839844 30.2334 0.0839844 23.8036C0.0839844 17.3716 0.111419 16.5665 0.22327 14.0437C0.335121 11.5209 0.729764 9.79877 1.30168 8.29196C1.88567 6.71212 2.80031 5.28115 3.98187 4.09869C5.14056 2.89432 6.54277 1.96212 8.0908 1.36705C9.56808 0.783695 11.2564 0.383312 13.7255 0.267071H13.7277ZM32.6789 4.52921C30.2309 4.41513 29.4965 4.39145 23.2983 4.39145C17.1001 4.39145 16.3656 4.41513 13.9176 4.52921C11.6531 4.63469 10.4249 5.02001 9.60606 5.34505C8.52343 5.77557 7.74892 6.28573 6.93642 7.11448C6.16622 7.87877 5.57349 8.80919 5.20168 9.83752C4.88301 10.6727 4.50525 11.9255 4.40184 14.2353C4.28999 16.7323 4.26678 17.4814 4.26678 23.8036C4.26678 30.1258 4.28999 30.8749 4.40184 33.3719C4.50525 35.6816 4.88301 36.9344 5.20168 37.7696C5.57311 38.7964 6.16613 39.7285 6.93642 40.4927C7.68561 41.2784 8.59941 41.8832 9.60606 42.2621C10.4249 42.5871 11.6531 42.9725 13.9176 43.0779C16.3656 43.192 17.0979 43.2157 23.2983 43.2157C29.4986 43.2157 30.2309 43.192 32.6789 43.0779C34.9434 42.9725 36.1716 42.5871 36.9905 42.2621C38.0731 41.8316 38.8476 41.3214 39.6601 40.4927C40.4304 39.7285 41.0234 38.7964 41.3949 37.7696C41.7135 36.9344 42.0913 35.6816 42.1947 33.3719C42.3065 30.8749 42.3298 30.1258 42.3298 23.8036C42.3298 17.4814 42.3065 16.7323 42.1947 14.2353C42.0913 11.9255 41.7135 10.6727 41.3949 9.83752C40.9728 8.73324 40.4726 7.94323 39.6601 7.11448C38.9108 6.32894 37.9986 5.72436 36.9905 5.34505C36.1716 5.02001 34.9434 4.63469 32.6789 4.52921ZM20.3332 31.103C21.9891 31.8061 23.833 31.901 25.5499 31.3715C27.2668 30.842 28.7502 29.7209 29.7468 28.1997C30.7434 26.6785 31.1912 24.8516 31.014 23.031C30.8367 21.2104 30.0452 19.5091 28.7747 18.2176C27.9648 17.392 26.9856 16.7599 25.9074 16.3667C24.8293 15.9735 23.679 15.829 22.5396 15.9436C21.4001 16.0582 20.2997 16.4292 19.3177 17.0296C18.3356 17.6301 17.4963 18.4452 16.8601 19.4163C16.224 20.3873 15.8068 21.4902 15.6386 22.6454C15.4705 23.8006 15.5556 24.9795 15.8877 26.0972C16.2199 27.2149 16.7908 28.2435 17.5595 29.1091C18.3282 29.9747 19.2755 30.6557 20.3332 31.103ZM14.8609 15.1975C15.9689 14.0673 17.2843 13.1708 18.732 12.5592C20.1797 11.9475 21.7313 11.6327 23.2983 11.6327C24.8652 11.6327 26.4168 11.9475 27.8645 12.5592C29.3122 13.1708 30.6276 14.0673 31.7356 15.1975C32.8436 16.3277 33.7225 17.6694 34.3222 19.146C34.9218 20.6226 35.2305 22.2053 35.2305 23.8036C35.2305 25.4019 34.9218 26.9845 34.3222 28.4612C33.7225 29.9378 32.8436 31.2795 31.7356 32.4097C29.4979 34.6921 26.4629 35.9744 23.2983 35.9744C20.1337 35.9744 17.0987 34.6921 14.8609 32.4097C12.6232 30.1272 11.3661 27.0315 11.3661 23.8036C11.3661 20.5757 12.6232 17.48 14.8609 15.1975ZM37.8768 13.4453C38.1514 13.1811 38.3712 12.8634 38.5233 12.511C38.6753 12.1586 38.7565 11.7787 38.762 11.3937C38.7675 11.0087 38.6972 10.6265 38.5553 10.2698C38.4134 9.91302 38.2027 9.58892 37.9358 9.31668C37.6689 9.04443 37.3512 8.82958 37.0014 8.68484C36.6517 8.5401 36.277 8.46842 35.8996 8.47403C35.5221 8.47964 35.1497 8.56244 34.8042 8.71752C34.4587 8.87259 34.1472 9.0968 33.8882 9.37686C33.3845 9.92153 33.1087 10.645 33.1194 11.3937C33.1301 12.1424 33.4264 12.8574 33.9455 13.3868C34.4646 13.9163 35.1655 14.2185 35.8996 14.2295C36.6336 14.2404 37.3428 13.9591 37.8768 13.4453Z" fill="#463F3A" fill-opacity="0.77"/>
</svg>
