<svg width="27" height="27" viewBox="0 0 27 27" fill="none" xmlns="http://www.w3.org/2000/svg">
<path d="M13.4964 8.86676C11.0175 8.86676 8.99454 10.8602 8.99454 13.303C8.99454 15.7457 11.0175 17.7392 13.4964 17.7392C15.9752 17.7392 17.9982 15.7457 17.9982 13.303C17.9982 10.8602 15.9752 8.86676 13.4964 8.86676ZM26.9985 13.303C26.9985 11.4659 27.0154 9.64551 26.9107 7.81179C26.806 5.68187 26.3129 3.79157 24.7324 2.23407C23.1485 0.673244 21.2336 0.190685 19.0722 0.0875177C17.2079 -0.0156501 15.3606 0.000989892 13.4997 0.000989892C11.6355 0.000989892 9.78819 -0.0156501 7.92734 0.0875177C5.76592 0.190685 3.84766 0.676572 2.26712 2.23407C0.683203 3.7949 0.193506 5.68187 0.0888122 7.81179C-0.0158816 9.64884 0.00100453 11.4693 0.00100453 13.303C0.00100453 15.1367 -0.0158816 16.9604 0.0888122 18.7942C0.193506 20.9241 0.68658 22.8144 2.26712 24.3719C3.85103 25.9327 5.76592 26.4153 7.92734 26.5184C9.79156 26.6216 11.6389 26.605 13.4997 26.605C15.364 26.605 17.2113 26.6216 19.0722 26.5184C21.2336 26.4153 23.1518 25.9294 24.7324 24.3719C26.3163 22.8111 26.806 20.9241 26.9107 18.7942C27.0188 16.9604 26.9985 15.14 26.9985 13.303ZM13.4964 20.1287C9.66323 20.1287 6.56969 17.0803 6.56969 13.303C6.56969 9.52571 9.66323 6.47726 13.4964 6.47726C17.3295 6.47726 20.423 9.52571 20.423 13.303C20.423 17.0803 17.3295 20.1287 13.4964 20.1287ZM20.7067 7.79182C19.8118 7.79182 19.089 7.07963 19.089 6.19771C19.089 5.31579 19.8118 4.6036 20.7067 4.6036C21.6017 4.6036 22.3244 5.31579 22.3244 6.19771C22.3247 6.40713 22.283 6.61454 22.2018 6.80806C22.1206 7.00159 22.0015 7.17743 21.8512 7.3255C21.7009 7.47358 21.5225 7.59099 21.3261 7.67101C21.1297 7.75103 20.9192 7.79208 20.7067 7.79182Z" fill="#828282"/>
</svg>
