<svg width="25" height="27" viewBox="0 0 25 27" fill="none" xmlns="http://www.w3.org/2000/svg">
<path d="M12.5 19.125L13.5417 16.875V11.0902C15.3344 10.5874 16.6667 8.84025 16.6667 6.75C16.6667 4.26825 14.7979 2.25 12.5 2.25C10.2021 2.25 8.33334 4.26825 8.33334 6.75C8.33334 8.84025 9.66564 10.5874 11.4583 11.0902V16.875L12.5 19.125Z" fill="#646464"/>
<path d="M16.9448 11.8834L16.3896 14.0524C19.0886 14.8579 20.8333 16.4071 20.8333 18.0001C20.8333 20.1286 17.4115 22.5001 12.5 22.5001C7.58855 22.5001 4.16668 20.1286 4.16668 18.0001C4.16668 16.4071 5.91147 14.8579 8.61147 14.0513L8.05626 11.8823C4.37189 12.9826 2.08334 15.3259 2.08334 18.0001C2.08334 21.7846 6.65939 24.7501 12.5 24.7501C18.3406 24.7501 22.9167 21.7846 22.9167 18.0001C22.9167 15.3259 20.6281 12.9826 16.9448 11.8834Z" fill="#646464"/>
</svg>
