<svg width="51" height="51" viewBox="0 0 51 51" fill="none" xmlns="http://www.w3.org/2000/svg">
<path fill-rule="evenodd" clip-rule="evenodd" d="M33.0034 19.5904C33.1519 19.7384 33.2696 19.9143 33.35 20.1079C33.4303 20.3015 33.4717 20.5091 33.4717 20.7188C33.4717 20.9284 33.4303 21.136 33.35 21.3296C33.2696 21.5232 33.1519 21.6991 33.0034 21.8471L23.4409 31.4096C23.2929 31.558 23.117 31.6758 22.9234 31.7561C22.7298 31.8365 22.5222 31.8779 22.3126 31.8779C22.1029 31.8779 21.8954 31.8365 21.7017 31.7561C21.5081 31.6758 21.3322 31.558 21.1842 31.4096L16.4029 26.6284C16.2548 26.4802 16.1372 26.3043 16.057 26.1107C15.9768 25.9171 15.9355 25.7096 15.9355 25.5C15.9355 25.2904 15.9768 25.0829 16.057 24.8893C16.1372 24.6957 16.2548 24.5198 16.4029 24.3716C16.5511 24.2234 16.727 24.1059 16.9206 24.0257C17.1142 23.9455 17.3218 23.9042 17.5313 23.9042C17.7409 23.9042 17.9484 23.9455 18.142 24.0257C18.3356 24.1059 18.5115 24.2234 18.6597 24.3716L22.3126 28.0277L30.7467 19.5904C30.8947 19.442 31.0706 19.3242 31.2642 19.2439C31.4579 19.1635 31.6654 19.1222 31.8751 19.1222C32.0847 19.1222 32.2923 19.1635 32.4859 19.2439C32.6795 19.3242 32.8554 19.442 33.0034 19.5904Z" fill="#1BE837"/>
<path d="M32.7446 8.00928L29.8089 5.00029L32.0879 2.77541L34.0706 4.80585L36.9074 4.77079C38.1354 4.75625 39.3539 4.9874 40.4913 5.45064C41.6286 5.91388 42.6619 6.59986 43.5302 7.46824C44.3986 8.33661 45.0846 9.36986 45.5478 10.5072C46.0111 11.6446 46.2422 12.8631 46.2277 14.091L46.1958 16.9279L48.2231 18.9105C49.1011 19.7685 49.7988 20.7933 50.2751 21.9248C50.7514 23.0562 50.9968 24.2715 50.9968 25.4991C50.9968 26.7267 50.7514 27.942 50.2751 29.0734C49.7988 30.2049 49.1011 31.2297 48.2231 32.0877L46.1926 34.0703L46.2277 36.9072C46.2422 38.1351 46.0111 39.3536 45.5478 40.491C45.0846 41.6283 44.3986 42.6616 43.5302 43.53C42.6619 44.3983 41.6286 45.0843 40.4913 45.5476C39.3539 46.0108 38.1354 46.2419 36.9074 46.2274L34.0706 46.1955L32.0879 48.2228C31.23 49.1008 30.2051 49.7985 29.0737 50.2748C27.9423 50.7512 26.727 50.9965 25.4994 50.9965C24.2718 50.9965 23.0565 50.7512 21.9251 50.2748C20.7936 49.7985 19.7688 49.1008 18.9108 48.2228L16.9282 46.1923L14.0913 46.2274C12.8633 46.2419 11.6448 46.0108 10.5075 45.5476C9.37015 45.0843 8.3369 44.3983 7.46853 43.53C6.60015 42.6616 5.91417 41.6283 5.45093 40.491C4.98769 39.3536 4.75654 38.1351 4.77108 36.9072L4.80295 34.0703L2.7757 32.0877C1.89767 31.2297 1.19999 30.2049 0.723661 29.0734C0.247329 27.942 0.00195312 26.7267 0.00195312 25.4991C0.00195312 24.2715 0.247329 23.0562 0.723661 21.9248C1.19999 20.7933 1.89767 19.7685 2.7757 18.9105L4.80614 16.9279L4.77108 14.091C4.75654 12.8631 4.98769 11.6446 5.45093 10.5072C5.91417 9.36986 6.60015 8.33661 7.46853 7.46824C8.3369 6.59986 9.37015 5.91388 10.5075 5.45064C11.6448 4.9874 12.8633 4.75625 14.0913 4.77079L16.9282 4.80266L18.9108 2.77541C19.7688 1.89738 20.7936 1.1997 21.9251 0.723371C23.0565 0.247039 24.2718 0.00166321 25.4994 0.00166321C26.727 0.00166321 27.9423 0.247039 29.0737 0.723371C30.2051 1.1997 31.23 1.89738 32.0879 2.77541L29.8089 5.00029C29.2478 4.42585 28.5775 3.9694 27.8374 3.65776C27.0973 3.34612 26.3024 3.18558 25.4994 3.18558C24.6964 3.18558 23.9015 3.34612 23.1614 3.65776C22.4213 3.9694 21.751 4.42585 21.1899 5.00029L18.2574 8.00928L14.0499 7.95829C13.2472 7.94931 12.4508 8.10085 11.7075 8.40398C10.9642 8.70712 10.289 9.15576 9.72155 9.72352C9.15408 10.2913 8.7058 10.9667 8.40305 11.7102C8.1003 12.4536 7.94918 13.2501 7.95858 14.0528L8.00957 18.2539L5.00058 21.1896C4.42614 21.7507 3.96969 22.421 3.65805 23.1611C3.34641 23.9012 3.18587 24.6961 3.18587 25.4991C3.18587 26.3021 3.34641 27.097 3.65805 27.8371C3.96969 28.5772 4.42614 29.2475 5.00058 29.8086L8.00957 32.7411L7.95858 36.9486C7.9496 37.7513 8.10114 38.5477 8.40427 39.291C8.70741 40.0342 9.15604 40.7095 9.72381 41.2769C10.2916 41.8444 10.967 42.2927 11.7105 42.5954C12.4539 42.8982 13.2504 43.0493 14.0531 43.0399L18.2542 42.9889L21.1899 45.9979C21.751 46.5723 22.4213 47.0288 23.1614 47.3404C23.9015 47.6521 24.6964 47.8126 25.4994 47.8126C26.3024 47.8126 27.0973 47.6521 27.8374 47.3404C28.5775 47.0288 29.2478 46.5723 29.8089 45.9979L32.7414 42.9889L36.9489 43.0399C37.7516 43.0489 38.5479 42.8973 39.2912 42.5942C40.0345 42.2911 40.7098 41.8424 41.2772 41.2747C41.8447 40.7069 42.293 40.0315 42.5957 39.288C42.8985 38.5445 43.0496 37.7481 43.0402 36.9454L42.9892 32.7443L45.9982 29.8086C46.5726 29.2475 47.0291 28.5772 47.3407 27.8371C47.6524 27.097 47.8129 26.3021 47.8129 25.4991C47.8129 24.6961 47.6524 23.9012 47.3407 23.1611C47.0291 22.421 46.5726 21.7507 45.9982 21.1896L42.9892 18.2571L43.0402 14.0496C43.0492 13.2469 42.8976 12.4505 42.5945 11.7072C42.2914 10.9639 41.8427 10.2887 41.275 9.72126C40.7072 9.15379 40.0317 8.70551 39.2883 8.40276C38.5448 8.10001 37.7484 7.94889 36.9457 7.95829L32.7446 8.00928Z" fill="#1BE837"/>
</svg>
