<svg width="34" height="34" viewBox="0 0 34 34" fill="none" xmlns="http://www.w3.org/2000/svg">
<g clip-path="url(#clip0_116_5661)">
<path d="M16.5904 1.23129e-05C13.8377 -0.00658935 8.82719 2.64269 8.66835 4.99801C8.50951 7.35333 8.98922 7.49849 9.21235 7.62735H11.7963C12.3868 6.29415 13.1059 5.51478 14.9924 5.53068C16.8788 5.54657 18.948 7.90632 18.075 9.99601C17.202 12.0857 16.3953 12.8136 15.321 15.0733C14.2468 17.3331 13.8879 20.7466 15.2984 23.5847L18.483 23.6413C17.6948 19.59 21.8671 15.9806 23.5264 13.4867C25.1855 10.9928 25.3432 10.0423 25.3624 7.97868C25.3477 6.02045 24.6386 4.06355 23.0957 2.47068C21.5528 0.877807 19.343 0.00664231 16.5904 1.23129e-05ZM16.749 26.282C14.6191 26.282 12.8957 28.0054 12.8957 30.1354C12.8957 32.2653 14.6191 34 16.749 34C18.8789 34 20.6023 32.2653 20.6023 30.1354C20.6023 28.0054 18.8789 26.282 16.749 26.282Z" fill="url(#paint0_linear_116_5661)"/>
</g>
<defs>
<linearGradient id="paint0_linear_116_5661" x1="16.9995" y1="0" x2="16.9995" y2="34" gradientUnits="userSpaceOnUse">
<stop stop-color="#E2AE9C"/>
<stop offset="1" stop-color="#FDA362"/>
</linearGradient>
<clipPath id="clip0_116_5661">
<rect width="34" height="34" fill="white"/>
</clipPath>
</defs>
</svg>
