<svg width="30" height="28" viewBox="0 0 30 28" fill="none" xmlns="http://www.w3.org/2000/svg">
<path d="M19.5265 9.01842L12.6401 16.6873C12.561 16.7755 12.5064 16.8829 12.482 16.9989C12.4575 17.1148 12.4641 17.2352 12.5009 17.3478L15.623 26.8726C15.9005 27.7564 17.1199 27.836 17.508 26.994L28.9104 2.33931C28.9891 2.16875 29.0188 1.97967 28.9961 1.79321C28.9735 1.60676 28.8994 1.4303 28.7822 1.28355C28.665 1.13681 28.5092 1.02558 28.3324 0.962312C28.1556 0.899038 27.9646 0.886217 27.7809 0.92528L1.21641 6.59963C0.310263 6.79319 0.118535 8.00002 0.918336 8.46489L9.51924 13.6131C9.62094 13.6739 9.73686 13.7068 9.85535 13.7086C9.97383 13.7104 10.0907 13.6809 10.1942 13.6232L19.1948 8.60107C19.2507 8.56939 19.316 8.55867 19.3791 8.57082C19.4421 8.58298 19.4988 8.61721 19.5389 8.66739C19.579 8.71756 19.5998 8.78037 19.5978 8.84456C19.5957 8.90874 19.5708 8.97009 19.5276 9.01758L19.5265 9.01842Z" fill="white"/>
</svg>
