<svg width="29" height="29" viewBox="0 0 29 29" fill="none" xmlns="http://www.w3.org/2000/svg">
<path d="M8.44993 14.5C8.44993 17.8362 11.1638 20.5501 14.5001 20.5501C17.8363 20.5501 20.5502 17.8362 20.5502 14.5C20.5502 11.1638 17.8363 8.44983 14.5001 8.44983C11.1638 8.44983 8.44993 11.1638 8.44993 14.5ZM14.5001 10.8665C16.5035 10.8665 18.1335 12.4965 18.1335 14.5C18.1335 16.5034 16.5035 18.1334 14.5001 18.1334C12.4966 18.1334 10.8666 16.5034 10.8666 14.5C10.8666 12.4965 12.4966 10.8665 14.5001 10.8665ZM13.2893 22.9583H15.706V26.5833H13.2893V22.9583ZM13.2893 2.41663H15.706V6.04163H13.2893V2.41663ZM2.41431 13.2916H6.03931V15.7083H2.41431V13.2916ZM22.956 13.2916H26.581V15.7083H22.956V13.2916ZM5.09801 22.1886L7.65968 19.6245L9.36947 21.3331L6.80781 23.8972L5.09801 22.1886ZM19.6234 7.66563L22.1875 5.10154L23.8961 6.81013L21.332 9.37421L19.6234 7.66563ZM7.66331 9.37542L5.09922 6.81133L6.80901 5.10275L9.37068 7.66683L7.66331 9.37542ZM23.8961 22.1898L22.1875 23.8984L19.6234 21.3343L21.332 19.6257L23.8961 22.1898Z" fill="#FF8FA3"/>
</svg>
