<svg width="29" height="29" viewBox="0 0 29 29" fill="none" xmlns="http://www.w3.org/2000/svg">
<path d="M8.44987 14.5001C8.44987 17.8363 11.1638 20.5502 14.5 20.5502C17.8362 20.5502 20.5501 17.8363 20.5501 14.5001C20.5501 11.1639 17.8362 8.44996 14.5 8.44996C11.1638 8.44996 8.44987 11.1639 8.44987 14.5001ZM14.5 10.8666C16.5034 10.8666 18.1335 12.4967 18.1335 14.5001C18.1335 16.5035 16.5034 18.1335 14.5 18.1335C12.4966 18.1335 10.8665 16.5035 10.8665 14.5001C10.8665 12.4967 12.4966 10.8666 14.5 10.8666ZM13.2892 22.9584H15.7059V26.5834H13.2892V22.9584ZM13.2892 2.41675H15.7059V6.04175H13.2892V2.41675ZM2.41425 13.2917H6.03925V15.7084H2.41425V13.2917ZM22.9559 13.2917H26.5809V15.7084H22.9559V13.2917ZM5.09795 22.1887L7.65962 19.6246L9.36941 21.3332L6.80774 23.8973L5.09795 22.1887ZM19.6233 7.66575L22.1874 5.10167L23.896 6.81025L21.3319 9.37433L19.6233 7.66575ZM7.66325 9.37554L5.09916 6.81146L6.80895 5.10287L9.37062 7.66696L7.66325 9.37554ZM23.896 22.1899L22.1874 23.8985L19.6233 21.3344L21.3319 19.6258L23.896 22.1899Z" fill="#FFA25E"/>
</svg>
