<svg width="30" height="30" viewBox="0 0 30 30" fill="none" xmlns="http://www.w3.org/2000/svg">
<path d="M16.25 6.25C16.25 5.91848 16.1183 5.60054 15.8839 5.36612C15.6495 5.1317 15.3315 5 15 5C14.6685 5 14.3505 5.1317 14.1161 5.36612C13.8817 5.60054 13.75 5.91848 13.75 6.25V7.5C13.75 7.83152 13.8817 8.14946 14.1161 8.38388C14.3505 8.6183 14.6685 8.75 15 8.75C15.3315 8.75 15.6495 8.6183 15.8839 8.38388C16.1183 8.14946 16.25 7.83152 16.25 7.5V6.25ZM11.285 23.75H3.75C3.41848 23.75 3.10054 23.6183 2.86612 23.3839C2.6317 23.1495 2.5 22.8315 2.5 22.5C2.5 22.1685 2.6317 21.8505 2.86612 21.6161C3.10054 21.3817 3.41848 21.25 3.75 21.25H8.50375C7.8459 20.1098 7.49972 18.8166 7.5 17.5002C7.50028 16.1839 7.84701 14.8908 8.50534 13.7509C9.16367 12.611 10.1104 11.6645 11.2505 11.0064C12.3905 10.3483 13.6837 10.0018 15 10.0018C16.3163 10.0018 17.6095 10.3483 18.7495 11.0064C19.8896 11.6645 20.8363 12.611 21.4947 13.7509C22.153 14.8908 22.4997 16.1839 22.5 17.5002C22.5003 18.8166 22.1541 20.1098 21.4963 21.25H26.25C26.5815 21.25 26.8995 21.3817 27.1339 21.6161C27.3683 21.8505 27.5 22.1685 27.5 22.5C27.5 22.8315 27.3683 23.1495 27.1339 23.3839C26.8995 23.6183 26.5815 23.75 26.25 23.75H11.285ZM15 12.5C13.9844 12.4999 12.9928 12.8092 12.1572 13.3865C11.3217 13.9639 10.6818 14.7821 10.3227 15.7321C9.96356 16.6821 9.90228 17.719 10.147 18.7047C10.3917 19.6904 10.9308 20.5782 11.6925 21.25H18.3075C19.0692 20.5782 19.6083 19.6904 19.853 18.7047C20.0977 17.719 20.0364 16.6821 19.6773 15.7321C19.3182 14.7821 18.6783 13.9639 17.8428 13.3865C17.0072 12.8092 16.0156 12.4999 15 12.5ZM23.8387 10.4288L22.955 11.3125C22.8397 11.4319 22.7018 11.5271 22.5493 11.5926C22.3967 11.6581 22.2327 11.6926 22.0667 11.6941C21.9008 11.6955 21.7362 11.6639 21.5826 11.601C21.4289 11.5382 21.2894 11.4454 21.172 11.328C21.0546 11.2106 20.9618 11.0711 20.899 10.9174C20.8361 10.7638 20.8045 10.5992 20.8059 10.4332C20.8074 10.2673 20.8419 10.1032 20.9074 9.95074C20.9729 9.79824 21.0681 9.66031 21.1875 9.545L22.0712 8.66125C22.1866 8.54186 22.3245 8.44663 22.477 8.38112C22.6295 8.31561 22.7935 8.28113 22.9595 8.27969C23.1255 8.27824 23.2901 8.30987 23.4437 8.37272C23.5973 8.43557 23.7369 8.52839 23.8542 8.64576C23.9716 8.76312 24.0644 8.90269 24.1273 9.05631C24.1901 9.20993 24.2218 9.37453 24.2203 9.5405C24.2189 9.70648 24.1844 9.8705 24.1189 10.023C24.0534 10.1755 23.9581 10.3134 23.8387 10.4288Z" fill="#FFA25E"/>
<path d="M5 18.7499C5.33152 18.7499 5.64946 18.6182 5.88388 18.3838C6.1183 18.1494 6.25 17.8314 6.25 17.4999C6.25 17.1684 6.1183 16.8504 5.88388 16.616C5.64946 16.3816 5.33152 16.2499 5 16.2499H3.75C3.41848 16.2499 3.10054 16.3816 2.86612 16.616C2.6317 16.8504 2.5 17.1684 2.5 17.4999C2.5 17.8314 2.6317 18.1494 2.86612 18.3838C3.10054 18.6182 3.41848 18.7499 3.75 18.7499H5ZM27.5 17.4999C27.5 17.8314 27.3683 18.1494 27.1339 18.3838C26.8995 18.6182 26.5815 18.7499 26.25 18.7499H25C24.6685 18.7499 24.3505 18.6182 24.1161 18.3838C23.8817 18.1494 23.75 17.8314 23.75 17.4999C23.75 17.1684 23.8817 16.8504 24.1161 16.616C24.3505 16.3816 24.6685 16.2499 25 16.2499H26.25C26.5815 16.2499 26.8995 16.3816 27.1339 16.616C27.3683 16.8504 27.5 17.1684 27.5 17.4999ZM7.045 11.3124C7.28075 11.5401 7.59651 11.6661 7.92425 11.6633C8.252 11.6604 8.56551 11.5289 8.79727 11.2972C9.02903 11.0654 9.16049 10.7519 9.16334 10.4242C9.16619 10.0964 9.0402 9.78066 8.8125 9.54491L7.92875 8.66116C7.81409 8.53906 7.67606 8.44125 7.52287 8.37354C7.36967 8.30583 7.20443 8.2696 7.03695 8.267C6.86948 8.2644 6.70319 8.29548 6.54796 8.3584C6.39274 8.42132 6.25174 8.5148 6.13335 8.63327C6.01495 8.75175 5.92158 8.89282 5.85876 9.04809C5.79595 9.20336 5.76499 9.36967 5.76771 9.53714C5.77043 9.70461 5.80678 9.86983 5.8746 10.023C5.94241 10.1761 6.04032 10.3141 6.1625 10.4287L7.04625 11.3124H7.045Z" fill="#FFA25E"/>
</svg>
