<svg width="28" height="28" viewBox="0 0 28 28" fill="none" xmlns="http://www.w3.org/2000/svg">
<path fill-rule="evenodd" clip-rule="evenodd" d="M9.33334 18.6666C9.33339 17.8868 9.52883 17.1195 9.90182 16.4347C10.2748 15.7499 10.8134 15.1695 11.4685 14.7465C12.1236 14.3235 12.8743 14.0714 13.6519 14.0132C14.4295 13.955 15.2093 14.0926 15.92 14.4134C16.6307 14.7343 17.2497 15.2281 17.7205 15.8497C18.1912 16.4714 18.4986 17.2011 18.6147 17.9722C18.7308 18.7433 18.6518 19.5312 18.3849 20.2639C18.118 20.9966 17.6718 21.6508 17.087 22.1666H10.913C10.4158 21.7292 10.0177 21.1907 9.74526 20.5872C9.47284 19.9836 9.33241 19.3288 9.33334 18.6666ZM10.465 24.4999H24.5C24.8094 24.4999 25.1062 24.377 25.325 24.1582C25.5438 23.9394 25.6667 23.6427 25.6667 23.3333C25.6667 23.0238 25.5438 22.7271 25.325 22.5083C25.1062 22.2895 24.8094 22.1666 24.5 22.1666H20.0632C20.6772 21.1024 21.0003 19.8954 21 18.6668C20.9998 17.4382 20.6761 16.2313 20.0617 15.1674C19.4473 14.1035 18.5636 13.2201 17.4996 12.6059C16.4355 11.9917 15.2286 11.6683 14 11.6683C12.7714 11.6683 11.5645 11.9917 10.5004 12.6059C9.43641 13.2201 8.55277 14.1035 7.93833 15.1674C7.32388 16.2313 7.00027 17.4382 7.00001 18.6668C6.99975 19.8954 7.32285 21.1024 7.93684 22.1666H3.50001C3.19059 22.1666 2.89384 22.2895 2.67505 22.5083C2.45626 22.7271 2.33334 23.0238 2.33334 23.3333C2.33334 23.6427 2.45626 23.9394 2.67505 24.1582C2.89384 24.377 3.19059 24.4999 3.50001 24.4999H10.465ZM22.2495 10.4171C22.4682 10.6359 22.5911 10.9326 22.5911 11.2419C22.5911 11.5513 22.4682 11.848 22.2495 12.0668L21.4247 12.8916C21.2046 13.1041 20.9099 13.2217 20.604 13.219C20.2981 13.2164 20.0055 13.0937 19.7892 12.8774C19.5729 12.6611 19.4502 12.3684 19.4476 12.0626C19.4449 11.7567 19.5625 11.462 19.775 11.2419L20.5998 10.4171C20.8186 10.1984 21.1153 10.0755 21.4247 10.0755C21.734 10.0755 22.0307 10.1984 22.2495 10.4171ZM4.66668 19.8333C4.9761 19.8333 5.27284 19.7103 5.49163 19.4915C5.71043 19.2728 5.83334 18.976 5.83334 18.6666C5.83334 18.3572 5.71043 18.0604 5.49163 17.8416C5.27284 17.6228 4.9761 17.4999 4.66668 17.4999H3.50001C3.19059 17.4999 2.89384 17.6228 2.67505 17.8416C2.45626 18.0604 2.33334 18.3572 2.33334 18.6666C2.33334 18.976 2.45626 19.2728 2.67505 19.4915C2.89384 19.7103 3.19059 19.8333 3.50001 19.8333H4.66668ZM25.6667 18.6666C25.6667 18.976 25.5438 19.2728 25.325 19.4915C25.1062 19.7103 24.8094 19.8333 24.5 19.8333H23.3333C23.0239 19.8333 22.7272 19.7103 22.5084 19.4915C22.2896 19.2728 22.1667 18.976 22.1667 18.6666C22.1667 18.3572 22.2896 18.0604 22.5084 17.8416C22.7272 17.6228 23.0239 17.4999 23.3333 17.4999H24.5C24.8094 17.4999 25.1062 17.6228 25.325 17.8416C25.5438 18.0604 25.6667 18.3572 25.6667 18.6666ZM6.57534 12.8916C6.79538 13.1041 7.09008 13.2217 7.39598 13.219C7.70187 13.2164 7.99449 13.0937 8.2108 12.8774C8.42711 12.6611 8.54981 12.3684 8.55246 12.0626C8.55512 11.7567 8.43753 11.462 8.22501 11.2419L7.40018 10.4171C7.29256 10.3057 7.16382 10.2168 7.02148 10.1556C6.87914 10.0945 6.72605 10.0623 6.57115 10.061C6.41624 10.0596 6.26261 10.0891 6.11923 10.1478C5.97585 10.2065 5.84559 10.2931 5.73605 10.4026C5.62651 10.5122 5.53988 10.6424 5.48122 10.7858C5.42256 10.9292 5.39304 11.0828 5.39439 11.2377C5.39573 11.3926 5.42792 11.5457 5.48906 11.6881C5.5502 11.8304 5.63908 11.9591 5.75051 12.0668L6.57534 12.8916ZM15.1667 6.51692V3.49992C15.1667 3.1905 15.0438 2.89375 14.825 2.67496C14.6062 2.45617 14.3094 2.33325 14 2.33325C13.6906 2.33325 13.3938 2.45617 13.1751 2.67496C12.9563 2.89375 12.8333 3.1905 12.8333 3.49992V6.51692L12.4915 6.17509C12.2715 5.96257 11.9768 5.84497 11.6709 5.84763C11.365 5.85029 11.0724 5.97299 10.8561 6.1893C10.6397 6.40561 10.517 6.69822 10.5144 7.00412C10.5117 7.31001 10.6293 7.60472 10.8418 7.82475L13.174 10.1569L13.1857 10.1686C13.4052 10.3838 13.7009 10.5033 14.0083 10.5011C14.3156 10.499 14.6096 10.3752 14.826 10.1569L17.1593 7.82475C17.3781 7.60584 17.5009 7.30899 17.5008 6.99951C17.5007 6.69002 17.3777 6.39326 17.1588 6.1745C16.9398 5.95574 16.643 5.83291 16.3335 5.83302C16.024 5.83312 15.7273 5.95617 15.5085 6.17509L15.1667 6.51692Z" fill="#FFA25E"/>
</svg>
