<svg width="58" height="61" viewBox="0 0 58 61" fill="none" xmlns="http://www.w3.org/2000/svg">
<g opacity="0.3">
<path opacity="0.3" d="M14.5289 22.5875L26.0999 14.1738V9.95181L22.1849 7.08691C16.9069 8.80585 12.4119 12.4247 9.48291 17.1593L10.6139 21.2003L14.5289 22.5875Z" fill="url(#paint0_linear_70_1084)"/>
</g>
<g opacity="0.3">
<path opacity="0.3" d="M8.7293 26.8998L5.82929 29.1012C5.82929 29.4631 5.80029 29.7948 5.80029 30.1567C5.80029 36.1579 7.9173 41.6464 11.4263 45.8683L14.7323 45.5667L17.0233 41.4353L12.7603 28.3473L8.7293 26.8998Z" fill="url(#paint1_linear_70_1084)"/>
</g>
<g opacity="0.3">
<path opacity="0.3" d="M47.3859 21.2003L48.5169 17.1593C45.5879 12.4247 41.1219 8.80585 35.8149 7.08691L31.8999 9.95181V14.1738L43.4709 22.5875L47.3859 21.2003Z" fill="url(#paint2_linear_70_1084)"/>
</g>
<g opacity="0.3">
<path opacity="0.3" d="M18.4729 27.0807L22.4169 39.2036H35.5829L39.5269 27.0807L28.9999 19.421L18.4729 27.0807Z" fill="url(#paint3_linear_70_1084)"/>
</g>
<g opacity="0.3">
<path opacity="0.3" d="M21.6048 45.2349L19.7488 48.5823L21.7498 53.0756C24.0408 53.8295 26.4768 54.2819 28.9998 54.2819C31.5228 54.2819 33.9588 53.8295 36.2498 53.0454L38.2508 48.5521L36.3948 45.2349H21.6048Z" fill="url(#paint4_linear_70_1084)"/>
</g>
<g opacity="0.3">
<path opacity="0.3" d="M52.1418 29.1012L49.2418 26.8998L45.2399 28.3473L41.0059 41.4353L43.2969 45.5667L46.6028 45.8683C50.0828 41.6464 52.1998 36.1579 52.1998 30.1567C52.1998 29.7948 52.1708 29.4631 52.1418 29.1012Z" fill="url(#paint5_linear_70_1084)"/>
</g>
<path d="M29 0C12.992 0 0 13.5102 0 30.1566C0 46.8031 12.992 60.3132 29 60.3132C45.008 60.3132 58 46.8031 58 30.1566C58 13.5102 45.008 0 29 0ZM31.9 9.95168L35.815 7.0868C41.093 8.77558 45.588 12.3944 48.517 17.1591L47.386 21.2001L43.471 22.5873L31.9 14.1736V9.95168ZM22.185 7.0868L26.1 9.95168V14.1736L14.529 22.5873L10.614 21.2001L9.483 17.1591C12.412 12.4245 16.907 8.80573 22.185 7.0868ZM14.732 45.5667L11.426 45.8682C7.917 41.6463 5.8 36.1578 5.8 30.1566C5.8 29.7947 5.829 29.463 5.858 29.1011L8.758 26.8997L12.76 28.3472L16.994 41.4352L14.732 45.5667ZM36.25 53.0455C33.959 53.8296 31.523 54.2819 29 54.2819C26.477 54.2819 24.041 53.8296 21.75 53.0455L19.749 48.5522L21.605 45.2349H36.424L38.28 48.5823L36.25 53.0455ZM35.583 39.2036H22.417L18.502 27.0806L29 19.4209L39.527 27.0806L35.583 39.2036ZM46.574 45.8682L43.268 45.5667L40.977 41.4352L45.211 28.3472L49.242 26.9299L52.142 29.1313C52.171 29.463 52.2 29.7947 52.2 30.1566C52.2 36.1578 50.083 41.6463 46.574 45.8682Z" fill="url(#paint6_linear_70_1084)"/>
<defs>
<linearGradient id="paint0_linear_70_1084" x1="17.7914" y1="7.08691" x2="17.7914" y2="22.5875" gradientUnits="userSpaceOnUse">
<stop stop-color="#DFA08D"/>
<stop offset="1" stop-color="#FFA25E"/>
</linearGradient>
<linearGradient id="paint1_linear_70_1084" x1="11.4118" y1="26.8998" x2="11.4118" y2="45.8683" gradientUnits="userSpaceOnUse">
<stop stop-color="#DFA08D"/>
<stop offset="1" stop-color="#FFA25E"/>
</linearGradient>
<linearGradient id="paint2_linear_70_1084" x1="40.2084" y1="7.08691" x2="40.2084" y2="22.5875" gradientUnits="userSpaceOnUse">
<stop stop-color="#DFA08D"/>
<stop offset="1" stop-color="#FFA25E"/>
</linearGradient>
<linearGradient id="paint3_linear_70_1084" x1="28.9999" y1="19.421" x2="28.9999" y2="39.2036" gradientUnits="userSpaceOnUse">
<stop stop-color="#DFA08D"/>
<stop offset="1" stop-color="#FFA25E"/>
</linearGradient>
<linearGradient id="paint4_linear_70_1084" x1="28.9998" y1="45.2349" x2="28.9998" y2="54.2819" gradientUnits="userSpaceOnUse">
<stop stop-color="#DFA08D"/>
<stop offset="1" stop-color="#FFA25E"/>
</linearGradient>
<linearGradient id="paint5_linear_70_1084" x1="46.6028" y1="26.8998" x2="46.6028" y2="45.8683" gradientUnits="userSpaceOnUse">
<stop stop-color="#DFA08D"/>
<stop offset="1" stop-color="#FFA25E"/>
</linearGradient>
<linearGradient id="paint6_linear_70_1084" x1="29" y1="0" x2="29" y2="60.3132" gradientUnits="userSpaceOnUse">
<stop stop-color="#DFA08D"/>
<stop offset="1" stop-color="#FFA25E"/>
</linearGradient>
</defs>
</svg>
