<svg width="59" height="59" viewBox="0 0 59 59" fill="none" xmlns="http://www.w3.org/2000/svg">
<g clip-path="url(#clip0_73_1413)">
<rect width="58.2857" height="58.2857" transform="translate(0.428589)" fill="#FFF3EB"/>
<path d="M15.519 34.1837H29.7581V58.2857H15.519V34.1837Z" fill="#B6B1B1"/>
<path d="M34.1297 32.9087H48.8104V47.7488H34.1297V32.9087Z" fill="white"/>
<path d="M52.2391 25.9007L31.4019 6.93511C30.3956 6.01984 28.7472 6.01984 27.7408 6.93511L6.89914 25.9007C5.8928 26.8206 5.0686 28.683 5.0686 30.0445V55.8131C5.0686 57.1747 6.18423 58.2903 7.54119 58.2903H17.1083V41.2918C17.1083 40.2536 17.9552 39.4066 18.9889 39.4066H26.5296C27.5633 39.4066 28.4148 40.2536 28.4148 41.2918V58.2857H51.597C52.9585 58.2857 54.0741 57.1747 54.0741 55.8086V30.0399C54.0741 28.683 53.25 26.816 52.2391 25.9007ZM40.2859 46.328H37.5948C36.338 46.328 35.3043 45.2989 35.3043 44.0376V41.7381H40.2859V46.328ZM40.2859 39.5523H35.3043V36.4696C35.3043 35.2128 36.338 34.1791 37.5948 34.1791H40.2859V39.5523ZM47.4487 44.0376C47.4487 45.2944 46.4196 46.328 45.1583 46.328H42.4671V41.7381H47.4487V44.0376ZM47.4487 39.5523H42.4716V34.1837H45.1628C45.7699 34.1849 46.3518 34.4266 46.7811 34.8559C47.2104 35.2851 47.452 35.867 47.4533 36.4741V39.5523H47.4487Z" fill="#FFBE8F"/>
<path d="M29.8992 11.9714L54.4794 34.7347L55.0531 34.7392L55.3127 26.4289L29.8992 2.89609L3.88921 26.4289L3.72528 34.1973L5.31903 34.211L29.8992 11.9714Z" fill="#FFA25E"/>
<path d="M19.9453 50.6813C20.8507 50.6813 21.5846 49.9473 21.5846 49.042C21.5846 48.1366 20.8507 47.4027 19.9453 47.4027C19.04 47.4027 18.306 48.1366 18.306 49.042C18.306 49.9473 19.04 50.6813 19.9453 50.6813Z" fill="white"/>
</g>
<defs>
<clipPath id="clip0_73_1413">
<rect width="58.2857" height="58.2857" fill="white" transform="translate(0.428589)"/>
</clipPath>
</defs>
</svg>
