<svg width="59" height="59" viewBox="0 0 59 59" fill="none" xmlns="http://www.w3.org/2000/svg">
<g clip-path="url(#clip0_79_457)">
<path d="M15.5189 34.1837H29.7579V58.2857H15.5189V34.1837Z" fill="#B6B1B1"/>
<path d="M34.1295 32.9087H48.8103V47.7487H34.1295V32.9087Z" fill="white"/>
<path d="M52.2389 25.9008L31.4018 6.93511C30.3954 6.01984 28.747 6.01984 27.7407 6.93511L6.89899 25.9008C5.89265 26.8206 5.06845 28.683 5.06845 30.0445V55.8132C5.06845 57.1748 6.18408 58.2904 7.54104 58.2904H17.1081V41.2919C17.1081 40.2537 17.9551 39.4067 18.9887 39.4067H26.5294C27.5631 39.4067 28.4146 40.2537 28.4146 41.2919V58.2858H51.5968C52.9584 58.2858 54.074 57.1748 54.074 55.8087V30.04C54.074 28.683 53.2498 26.816 52.2389 25.9008ZM40.2858 46.3281H37.5946C36.3378 46.3281 35.3042 45.299 35.3042 44.0377V41.7381H40.2858V46.3281ZM40.2858 39.5524H35.3042V36.4696C35.3042 35.2128 36.3378 34.1792 37.5946 34.1792H40.2858V39.5524ZM47.4485 44.0377C47.4485 45.2945 46.4194 46.3281 45.1581 46.3281H42.4669V41.7381H47.4485V44.0377ZM47.4485 39.5524H42.4715V34.1837H45.1626C45.7697 34.1849 46.3516 34.4266 46.7809 34.8559C47.2102 35.2852 47.4519 35.8671 47.4531 36.4742V39.5524H47.4485Z" fill="#FF8FA3"/>
<path d="M29.8991 11.9714L54.4793 34.7347L55.053 34.7392L55.3126 26.4289L29.8991 2.89609L3.88908 26.4289L3.72515 34.1973L5.3189 34.211L29.8991 11.9714Z" fill="#FF6E88"/>
<path d="M19.9452 50.6813C20.8505 50.6813 21.5845 49.9473 21.5845 49.042C21.5845 48.1366 20.8505 47.4027 19.9452 47.4027C19.0398 47.4027 18.3059 48.1366 18.3059 49.042C18.3059 49.9473 19.0398 50.6813 19.9452 50.6813Z" fill="white"/>
</g>
<defs>
<clipPath id="clip0_79_457">
<rect width="58.2857" height="58.2857" fill="white" transform="translate(0.428467)"/>
</clipPath>
</defs>
</svg>
