<svg width="79" height="79" viewBox="0 0 79 79" fill="none" xmlns="http://www.w3.org/2000/svg">
<path d="M35.6068 30.0447C33.391 31.6882 30.7074 32.5793 27.9487 32.5875C25.0775 32.5875 22.4434 31.6247 20.2882 30.0447C18.4366 31.5876 16.59 33.7972 15.0791 36.5202C11.5661 42.8476 11.1785 49.338 14.215 51.0216C15.5679 51.7919 16.9949 51.2142 18.4662 49.7971C18.1908 51.3239 18.0528 52.8722 18.0539 54.4236C18.0539 61.6768 20.8683 67.5376 24.332 67.5376C26.4205 67.5376 27.4549 65.4021 27.9512 62.136C28.4449 65.3799 29.4818 67.5376 31.5555 67.5376C35.0044 67.5376 37.841 61.6743 37.841 54.4236C37.841 52.7942 37.6879 51.2389 37.4262 49.7996C38.9075 51.2191 40.3295 51.8067 41.6873 51.0266C44.7164 49.3429 44.3239 42.855 40.8134 36.5251C39.3074 33.7996 37.4559 31.5926 35.6043 30.0496L35.6068 30.0447ZM27.9462 30.1187C29.334 30.1182 30.708 29.8444 31.9899 29.3129C33.2719 28.7814 34.4365 28.0026 35.4175 27.021C36.3984 26.0393 37.1764 24.8741 37.707 23.5918C38.2376 22.3095 38.5105 20.9353 38.51 19.5475C38.5095 18.1598 38.2357 16.7857 37.7042 15.5038C37.1727 14.2219 36.3939 13.0572 35.4122 12.0763C34.4306 11.0954 33.2654 10.3174 31.9831 9.78675C30.7008 9.25613 29.3266 8.98328 27.9388 8.98377C25.1355 8.98475 22.4474 10.0993 20.4658 12.0823C18.4843 14.0652 17.3716 16.7541 17.3726 19.5574C17.3736 22.3607 18.4881 25.0489 20.4711 27.0304C22.454 29.012 25.1429 30.1247 27.9462 30.1237V30.1187ZM54.2804 43.6228C58.0033 43.6228 61.025 40.601 61.025 36.8732C61.025 33.1454 57.9983 30.1187 54.2779 30.1187C52.4867 30.1194 50.7691 30.8312 49.5025 32.0978C48.2359 33.3644 47.5241 35.082 47.5234 36.8732C47.5247 38.6644 48.2372 40.3818 49.5042 41.6479C50.7713 42.914 52.4892 43.6253 54.2804 43.6253V43.6228ZM62.5013 47.7135C61.5385 45.973 60.3584 44.5609 59.1734 43.5734C57.7909 44.5856 56.1122 45.2028 54.2779 45.2028C52.4412 45.2028 50.7575 44.5856 49.3824 43.5734C48.1974 44.5609 47.0173 45.973 46.0496 47.7135C43.803 51.7573 43.5561 55.9048 45.4966 56.9812C46.3606 57.4749 47.2741 57.1046 48.2122 56.2011C48.0405 57.1767 47.9546 58.1655 47.9554 59.1562C47.9554 63.7974 49.7527 67.5425 51.9672 67.5425C53.3003 67.5425 53.9669 66.1773 54.2829 64.0912C54.5989 66.165 55.2605 67.54 56.5887 67.54C58.7933 67.54 60.6053 63.7925 60.6053 59.1562C60.6053 58.1193 60.5066 57.1219 60.3387 56.2035C61.2842 57.1096 62.1952 57.4873 63.0642 56.9861C64.9948 55.9147 64.7429 51.7647 62.5013 47.7209V47.7135Z" fill="url(#paint0_linear_73_1233)"/>
<defs>
<linearGradient id="paint0_linear_73_1233" x1="38.2654" y1="8.98376" x2="38.2654" y2="67.5425" gradientUnits="userSpaceOnUse">
<stop stop-color="#FFA25E"/>
<stop offset="0.0001" stop-color="#E0AFA0"/>
<stop offset="0.208333" stop-color="#E0AFA0"/>
<stop offset="1" stop-color="#FFA25E"/>
</linearGradient>
</defs>
</svg>
