<svg width="58" height="58" viewBox="0 0 58 58" fill="none" xmlns="http://www.w3.org/2000/svg">
<path d="M23.2 38.0625H23.1982C23.1982 36.2296 23.3196 37.0736 15.4905 17.5008C13.891 13.5031 9.31081 13.4952 7.70856 17.5008C-0.186688 37.2412 0.0018125 36.2874 0.0018125 38.0625H0C0 43.0673 5.19372 47.125 11.6 47.125C18.0063 47.125 23.2 43.0673 23.2 38.0625ZM11.6 19.9375L18.125 36.25H5.075L11.6 19.9375ZM57.9982 38.0625C57.9982 36.2296 58.1196 37.0736 50.2905 17.5008C48.691 13.5031 44.1108 13.4952 42.5086 17.5008C34.6133 37.2412 34.8018 36.2874 34.8018 38.0625H34.8C34.8 43.0673 39.9937 47.125 46.4 47.125C52.8063 47.125 58 43.0673 58 38.0625H57.9982ZM39.875 36.25L46.4 19.9375L52.925 36.25H39.875ZM47.85 50.75H31.9V17.3604C34.0306 16.1947 35.6301 13.7943 36.1041 10.875H47.85C48.6511 10.875 49.3 10.0639 49.3 9.0625V5.4375C49.3 4.43609 48.6511 3.625 47.85 3.625H34.7674C33.4443 1.43641 31.3644 0 29 0C26.6356 0 24.5557 1.43641 23.2326 3.625H10.15C9.34888 3.625 8.7 4.43609 8.7 5.4375V9.0625C8.7 10.0639 9.34888 10.875 10.15 10.875H21.8959C22.3699 13.7931 23.9685 16.1947 26.1 17.3604V50.75H10.15C9.34888 50.75 8.7 51.5611 8.7 52.5625V56.1875C8.7 57.1889 9.34888 58 10.15 58H47.85C48.6511 58 49.3 57.1889 49.3 56.1875V52.5625C49.3 51.5611 48.6511 50.75 47.85 50.75Z" fill="url(#paint0_linear_73_1346)"/>
<defs>
<linearGradient id="paint0_linear_73_1346" x1="29" y1="0" x2="29" y2="58" gradientUnits="userSpaceOnUse">
<stop stop-color="#E0AFA0"/>
<stop offset="1" stop-color="#FFA25E"/>
</linearGradient>
</defs>
</svg>
