<svg width="27" height="27" viewBox="0 0 27 27" fill="none" xmlns="http://www.w3.org/2000/svg">
<g clip-path="url(#clip0_86_2153)">
<rect width="25.7143" height="25.9048" transform="translate(0.453125 0.238098)" fill="#FFF3EB"/>
<path d="M7.11133 15.4308H13.3932V26.1429H7.11133V15.4308Z" fill="#B6B1B1"/>
<path d="M15.3203 14.8642H21.7971V21.4598H15.3203V14.8642Z" fill="white"/>
<path d="M23.3105 11.7495L14.1176 3.32036C13.6737 2.91358 12.9464 2.91358 12.5025 3.32036L3.30759 11.7495C2.86362 12.1583 2.5 12.9861 2.5 13.5912V25.0439C2.5 25.6491 2.99219 26.1449 3.59085 26.1449H7.81161V18.59C7.81161 18.1286 8.18527 17.7521 8.6413 17.7521H11.9681C12.4241 17.7521 12.7998 18.1286 12.7998 18.59V26.1429H23.0272C23.6279 26.1429 24.1201 25.649 24.1201 25.0419V13.5892C24.1201 12.9861 23.7565 12.1563 23.3105 11.7495ZM18.0371 20.8283H16.8498C16.2953 20.8283 15.8393 20.371 15.8393 19.8104V18.7883H18.0371V20.8283ZM18.0371 17.8169H15.8393V16.4468C15.8393 15.8882 16.2953 15.4288 16.8498 15.4288H18.0371V17.8169ZM21.1971 19.8104C21.1971 20.3689 20.7431 20.8283 20.1866 20.8283H18.9993V18.7883H21.1971V19.8104ZM21.1971 17.8169H19.0013V15.4308H20.1886C20.4565 15.4314 20.7132 15.5388 20.9026 15.7296C21.0919 15.9204 21.1986 16.179 21.1991 16.4488V17.8169H21.1971Z" fill="#FFBE8F"/>
<path d="M13.4555 5.55869L24.2997 15.6757L24.5528 15.6777L24.6674 11.9843L13.4555 1.52524L1.98052 11.9843L1.9082 15.4369L2.61133 15.443L13.4555 5.55869Z" fill="#FFA25E"/>
<path d="M9.06306 22.7631C9.46248 22.7631 9.78627 22.4369 9.78627 22.0345C9.78627 21.6321 9.46248 21.306 9.06306 21.306C8.66364 21.306 8.33984 21.6321 8.33984 22.0345C8.33984 22.4369 8.66364 22.7631 9.06306 22.7631Z" fill="white"/>
</g>
<defs>
<clipPath id="clip0_86_2153">
<rect width="25.7143" height="25.9048" fill="white" transform="translate(0.453125 0.238098)"/>
</clipPath>
</defs>
</svg>
