<svg width="58" height="58" viewBox="0 0 58 58" fill="none" xmlns="http://www.w3.org/2000/svg">
<path d="M12.1845 28.3203C11.9442 27.9041 11.5485 27.6004 11.0844 27.4759C10.6202 27.3514 10.1256 27.4164 9.70933 27.6565L4.07812 30.9043C3.55096 31.2064 3.09048 31.6122 2.72445 32.0972C2.35842 32.5822 2.09444 33.1363 1.94843 33.7261C1.66747 34.8956 1.85231 36.1285 2.46386 37.1642L2.95777 38.0183C3.55904 39.058 4.54849 39.8165 5.7087 40.127C6.8689 40.4376 8.10494 40.2748 9.14519 39.6745L14.7719 36.4312C14.9782 36.3124 15.1591 36.154 15.3041 35.9652C15.4492 35.7764 15.5557 35.5608 15.6174 35.3309C15.6792 35.1009 15.695 34.861 15.664 34.6249C15.6331 34.3888 15.5558 34.1612 15.4368 33.9549L12.1845 28.3203Z" fill="url(#paint0_linear_73_1334)"/>
<path d="M43.3686 49.9344L32.7066 28.7734C32.6806 28.7217 32.6755 28.6621 32.6921 28.6067C32.7087 28.5513 32.7459 28.5044 32.7961 28.4755L33.7363 27.9329C33.9425 27.8139 34.1233 27.6555 34.2682 27.4666C34.4132 27.2778 34.5196 27.0622 34.5812 26.8322C34.6429 26.6023 34.6586 26.3624 34.6275 26.1264C34.5965 25.8903 34.5192 25.6627 34.4001 25.4566L29.0159 16.1301C28.897 15.9238 28.7386 15.7429 28.5498 15.5978C28.361 15.4528 28.1454 15.3463 27.9155 15.2845C27.6855 15.2228 27.4456 15.207 27.2095 15.2379C26.9734 15.2689 26.7458 15.3461 26.5395 15.4652L16.7543 21.1066C16.2377 21.4025 15.785 21.798 15.4224 22.2701C15.0597 22.7422 14.7943 23.2816 14.6416 23.857C14.5377 24.2163 14.4855 24.5886 14.4864 24.9627C14.4932 25.8236 15.5286 27.5341 16.5391 29.2991C17.6254 31.1965 18.7186 33.137 19.5229 33.6207C20.0349 33.9289 20.9389 34.1758 21.699 34.1758H21.7942L12.8087 53.6149C12.7086 53.831 12.6521 54.0647 12.6423 54.3027C12.6326 54.5407 12.6699 54.7782 12.752 55.0018C12.8342 55.2254 12.9596 55.4306 13.1211 55.6056C13.2826 55.7807 13.477 55.9222 13.6932 56.0221C13.9094 56.122 14.1432 56.1783 14.3812 56.1878C14.6192 56.1972 14.8567 56.1597 15.0802 56.0773C15.3037 55.995 15.5087 55.8693 15.6837 55.7077C15.8586 55.546 15.9999 55.3514 16.0995 55.1351L26.7117 32.1787C26.7898 32.0088 26.9189 31.8674 27.081 31.7743L29.2572 30.5191C29.2839 30.5038 29.3135 30.4942 29.344 30.4907C29.3746 30.4872 29.4056 30.49 29.4351 30.4989C29.4646 30.5078 29.4919 30.5227 29.5155 30.5425C29.539 30.5623 29.5583 30.5867 29.5721 30.6143L40.131 51.5713C40.2381 51.7839 40.3861 51.9733 40.5664 52.1287C40.7467 52.2841 40.9558 52.4025 41.1819 52.477C41.4079 52.5516 41.6465 52.581 41.8839 52.5633C42.1213 52.5457 42.3529 52.4816 42.5654 52.3744C42.778 52.2673 42.9674 52.1194 43.1228 51.9391C43.2782 51.7588 43.3966 51.5496 43.4712 51.3236C43.5458 51.0975 43.5751 50.859 43.5575 50.6216C43.5399 50.3842 43.4757 50.1526 43.3686 49.94V49.9344Z" fill="url(#paint1_linear_73_1334)"/>
<path d="M55.5316 13.1112L50.3071 4.07812C49.7041 3.03994 48.7145 2.28285 47.5547 1.97247C46.3949 1.6621 45.1594 1.82371 44.1185 2.42195L33.5448 8.51422C33.0281 8.80996 32.5753 9.20539 32.2126 9.67754C31.8499 10.1497 31.5847 10.6892 31.4321 11.2647C31.282 11.7499 31.233 12.2608 31.2883 12.7657C31.4854 14.1953 32.7609 16.2094 34.28 18.8704C35.8184 21.5586 37.555 24.5888 38.4635 25.2447C39.2315 25.7876 40.1489 26.0793 41.0894 26.0796C41.8817 26.0799 42.66 25.8712 43.3459 25.4747L53.9219 19.379C54.448 19.0776 54.9077 18.673 55.2735 18.1894C55.6392 17.7059 55.9035 17.1534 56.0504 16.5651C56.3335 15.3902 56.1473 14.1511 55.5316 13.1112Z" fill="url(#paint2_linear_73_1334)"/>
<defs>
<linearGradient id="paint0_linear_73_1334" x1="8.74985" y1="27.4141" x2="8.74985" y2="40.2811" gradientUnits="userSpaceOnUse">
<stop stop-color="#E0AFA0"/>
<stop offset="1" stop-color="#FFA25E"/>
</linearGradient>
<linearGradient id="paint1_linear_73_1334" x1="28.1017" y1="15.2225" x2="28.1017" y2="56.1892" gradientUnits="userSpaceOnUse">
<stop stop-color="#E0AFA0"/>
<stop offset="1" stop-color="#FFA25E"/>
</linearGradient>
<linearGradient id="paint2_linear_73_1334" x1="43.7229" y1="1.81812" x2="43.7229" y2="26.0796" gradientUnits="userSpaceOnUse">
<stop stop-color="#E0AFA0"/>
<stop offset="1" stop-color="#FFA25E"/>
</linearGradient>
</defs>
</svg>
